<svg xmlns="http://www.w3.org/2000/svg" xmlns:xlink="http://www.w3.org/1999/xlink" viewBox="0 0 895.12 950.33"><defs><style>.cls-1{fill:none;}.cls-2{clip-path:url(#clip-path);}.cls-3{fill:#fff;}.cls-4{fill:#00ecc2;}</style><clipPath id="clip-path" transform="translate(0 0)"><rect class="cls-1" width="895.12" height="950.33"/></clipPath></defs><g id="Layer_2" data-name="Layer 2"><g id="Layer_1-2" data-name="Layer 1"><g class="cls-2"><path class="cls-3" d="M371.55,153s-49.41-24.57-189.63-29.89c-314.8-11.92-145.31,392-50.72,378.68,21.11-3-54.26-117.49-4.65-238,41.36-100.5,238.27-61.22,238.27-61.22Z" transform="translate(0 0)"/><path class="cls-4" d="M881.78,297.81q3.56-7,6.56-14.34a103.9,103.9,0,0,0,4.89-15.22,68.68,68.68,0,0,0,1.89-16.09V231.7q0-18.18-7.62-25.31t-23-7.14H830.13V166.13H795.2v66.38h50a25.48,25.48,0,0,1,3.78.34,13.12,13.12,0,0,1,4.26,1.41,9.73,9.73,0,0,1,3.49,3.29,10.79,10.79,0,0,1,1.47,6v8.07q0,8.24-4.47,19.13a288.34,288.34,0,0,1-13,26.66,237,237,0,0,0-14.53,31.64,102.37,102.37,0,0,0-6.71,36.76v19.51h37.17V362.44q0-11.58,5.31-24.84a237.07,237.07,0,0,1,12.43-26.19q3.8-6.6,7.35-13.6M779.83,244.35q0-23.16-9.85-34.13t-33.33-11H656.58v33.52h20.53c-1.48,1.36-2.81,2.61-4,3.77a13.48,13.48,0,0,0-2.86,4.52,29.23,29.23,0,0,0-1.68,6.53,51.21,51.21,0,0,0-.28,9.55l2.8,94.8H652.25v33.38H708V356.11l-2.52-107.85a17.06,17.06,0,0,1,2.59-9.63,12.49,12.49,0,0,1,8.6-6.12h12.85q6.57,0,9.86,4.58t3.28,12.79V385.32h37.17Zm-145.33,0q0-23.16-9.86-34.13t-33.32-11H511.24v33.52h20.54c-1.48,1.36-2.82,2.61-4,3.77a13.49,13.49,0,0,0-2.87,4.52,28.72,28.72,0,0,0-1.67,6.53,50.36,50.36,0,0,0-.28,9.55l2.79,94.8H506.9v33.38h55.77V356.11l-2.52-107.85a17,17,0,0,1,2.59-9.63,12.47,12.47,0,0,1,8.59-6.12h12.86q6.55,0,9.85,4.58t3.28,12.79V385.32H634.5Z" transform="translate(0 0)"/><path class="cls-3" d="M859.73,550.44q4.83-9.81,8.88-20.1a149.55,149.55,0,0,0,6.6-21.33,99.92,99.92,0,0,0,2.55-22.56V457.76q0-25.49-10.28-35.49t-31.06-10H779.86V412H742.79v46.88h67.58a34.7,34.7,0,0,1,5.1.47,17.39,17.39,0,0,1,5.75,2,13.19,13.19,0,0,1,4.72,4.63,15.42,15.42,0,0,1,2,8.4v11.32q0,11.52-6,26.8a410.09,410.09,0,0,1-17.56,37.38,341.72,341.72,0,0,0-19.63,44.37,148.58,148.58,0,0,0-9.06,51.53v27.37h50.21V641.05q0-16.23,7.17-34.83a336.71,336.71,0,0,1,16.81-36.71q5.08-9.25,9.9-19.07m-142.52-8.78a123.6,123.6,0,0,0,7.47-43.32V458.89q0-25.87-12.94-36.25t-32.56-10.38H567.81v46.63h90.42q4.69,0,10.66,3.49t6,13.12v23.21A89.2,89.2,0,0,1,670,526.84q-4.82,14.55-16.33,36.06a188.37,188.37,0,0,0-10.48,23,138.32,138.32,0,0,0-5.84,20.48A165,165,0,0,0,634.63,626q-.76,9.63-.76,20.2v27h50.21V641.43q0-8.11.67-15.29a101,101,0,0,1,2.35-14.26,99.84,99.84,0,0,1,4.82-14.63q3.12-7.53,7.64-16.42a315.58,315.58,0,0,0,17.65-39.17m-99.57-58.8H567.8V723h49.84ZM547.42,626H529.11a12.6,12.6,0,0,1-.38-4.16,17.59,17.59,0,0,1-.19-4.53c.12-1.63.19-3.52.19-5.66V462.48q0-15.11-3.4-24.73a34.8,34.8,0,0,0-10-15.29,37.79,37.79,0,0,0-16-7.94,93.18,93.18,0,0,0-21.52-2.26h-78.9v46.63h63.42q7.74,0,12,4.24t4.24,12.37V612.92c0,1,.07,2.8.19,5.38s.32,5.13.57,7.65H397v47.19H547.42Zm-187-75.51q4.83-9.81,8.88-20.1a150.84,150.84,0,0,0,6.6-21.33,99.92,99.92,0,0,0,2.55-22.56V457.76q0-25.49-10.29-35.49t-31.06-10H290.7V365.82H243.5v93.07h67.58a34.7,34.7,0,0,1,5.1.47,17.47,17.47,0,0,1,5.75,2,13.19,13.19,0,0,1,4.72,4.63,15.52,15.52,0,0,1,2,8.4v11.32q0,11.52-6,26.8A410.54,410.54,0,0,1,305,549.87a341.74,341.74,0,0,0-19.62,44.37,148.35,148.35,0,0,0-9.06,51.53v27.37h50.21V641.05q0-16.23,7.17-34.83a336.62,336.62,0,0,1,16.8-36.71q5.1-9.25,9.91-19.07" transform="translate(0 0)"/><path class="cls-4" d="M479.26,306a10.64,10.64,0,0,1,6.65-2.83V294.3h-26v8.76h13.37a11.21,11.21,0,0,0-3,3.36,17.6,17.6,0,0,0-1.61,3.72,14.8,14.8,0,0,0-.59,3.42c-.05,1.08-.07,2-.07,2.67v69.1h8.77V313.86q0-5.4,2.5-7.84m-32.68,6.33a32.63,32.63,0,0,0-1-9,13.09,13.09,0,0,0-3-5.54,10.42,10.42,0,0,0-5.21-2.76,33.55,33.55,0,0,0-7.34-.72H404.76v8.76h24.57q5,0,6.75,2.34c1.16,1.56,1.75,4.51,1.75,8.85v71.08h8.75Zm-33.19,6.58h-8.63v66.4h8.63Z" transform="translate(0 0)"/><path class="cls-3" d="M188.42,203.06C259,154.69,335.5,211.48,412,206c20.6-1.47,45.61-3.68,69.73-13.24,6.43-2.55,17-7.79,24.28-13.25,7.59-5.66,19.33-14.35,26.49-20.6,37-32.37,87.45-28.7,105.66-51.79,1.36-1.72,2.87-6.59,1.92-8.54-2-4-5.89-8.09-15.45-8.09a166.68,166.68,0,0,0-71.37,16.55c-32.44,15.43-22.07-5.52-18.17-11.61,4.21-6.59,16.57-17.76,22.06-22.21s24.61-13.9,34.93-16.18c33.29-7.38,64.78-4.48,85.74,0,18.91,4,40.35,11.37,61.56,7.63l8.89-1.57c8.23-1.45,18.83-7.37,18.92-14a13,13,0,0,0-1.05-5.93C762,34.62,734.27,25.8,725.91,22.76c-7.15-2.62-15-4.75-22.6-6.7-6.92-1.77-16.68-4.91-23-6.13-30.4-5.93-65.46-14.17-104-7.38L566,4.39C540.08,9,519.51,19.88,502.2,31.16c-5.21,3.4-8.69,6.44-12.9,9.14-5.13,3.28-7.6,6.51-11.72,9.34-4.67,3.21-7.06,6.09-11,9.83-2.77,2.62-8.57,7.64-10.76,10-30.58,32.78-93.12,79.5-156.39,64.79" transform="translate(0 0)"/><path class="cls-4" d="M637.89,821.83c-42,42-57.39,39-86.09,24.28-18-9.26-50.32-44.79-75.1-69.93-14.49-14.7-25.55-23.66-51.81-34.92-6.35-2.73-28.16-9.7-37.05-11.7-9.24-2.1-23.46-5.37-32.87-6.76-48.66-7.14-66.42-35-95.81-33.9-2.19.08-6.88,2.09-7.74,4.09-1.75,4.06-2.33,9.73,3.88,17,9.57,11.19,15.79,18.18,46.75,30.71,15,6.08,53.13,10.27,51.11,11.23-16.92,8.09-57.83.64-69.16-4.41-8.79-3.92-25.4-10.57-33.85-16.93-27.23-20.5-31.71-28.24-41.93-47.08-9.22-17-17.57-38.07-34.19-51.77-2.31-1.91-4.65-3.83-6.95-5.74-6.45-5.31-17.85-9.53-23-5.28a12.94,12.94,0,0,0-3.82,4.64c-3.75,8.76,7.51,35.52,10.63,43.87,2.66,7.12,6.11,14.46,9.59,21.53,3.14,6.41,7.1,15.86,10.26,21.45,15.23,27,21,39.63,51.11,64.48L230,783.4c20.3,16.73,42,25.28,61.79,31.12,6,1.76,10.55,2.43,15.33,3.87,5.83,1.76,9.88,1.56,14.71,2.85,5.49,1.47,9.21,1.41,14.61,2,3.8.4,11.37,1.56,14.61,1.67,44.78,2,103.29,32.58,150.83,76.85C592.27,985.9,622,940.89,641.33,913.54,714.9,809.32,766.4,757.81,795.83,732.07c47.07-41.19-26.55-12.42-63.76,7.35-47.1,25-74.56,62.79-94.18,82.41" transform="translate(0 0)"/></g></g></g></svg>